<svg width="212" height="22" viewBox="0 0 212 22" fill="none" xmlns="http://www.w3.org/2000/svg"><g clip-path="url(#clip0_560_593)"><path d="M46.4314 18.0831C46.2211 18.4147 45.9938 18.7343 45.7472 19.0393 45.3338 19.538 44.8575 19.9786 44.3281 20.3489 43.639 20.8331 42.8896 21.2204 42.0966 21.5037 41.086 21.8522 40.0223 22.0193 38.9561 21.9951 37.5635 22.012 36.1831 21.7336 34.9065 21.1769 33.7122 20.654 32.6412 19.8817 31.766 18.9134 30.8739 17.9185 30.1873 16.7565 29.7449 15.4953 29.2614 14.1203 29.0196 12.6727 29.0317 11.2154 29.0196 9.78227 29.2589 8.35885 29.7401 7.01048 30.1849 5.74925 30.8715 4.5897 31.7612 3.59234 32.634 2.61435 33.705 1.83244 34.9017 1.29503 36.1758.730988 37.5587.445337 38.9512.464703 40.0198.440495 41.0836.607529 42.0918.95612 42.8847 1.23935 43.6366 1.62667 44.3232 2.11083 44.8527 2.48121 45.329 2.92179 45.7424 3.42047 45.989 3.72549 46.2162 4.04503 46.4266 4.37425L45.3193 5.14648 44.7173 4.35973C44.3788 3.94336 43.9872 3.5754 43.5472 3.26554 42.9718 2.85643 42.3456 2.5272 41.6832 2.28028 40.8249 1.97285 39.9159 1.8276 39.0044 1.84939 37.7908 1.8276 36.5844 2.07452 35.4771 2.57078 34.4641 3.03557 33.5647 3.71338 32.8419 4.56065 32.1069 5.43697 31.5484 6.44402 31.1955 7.53094 30.8111 8.71955 30.6225 9.96382 30.6346 11.2129 30.6297 12.4645 30.8328 13.7063 31.2317 14.8925 31.5944 15.9843 32.1577 16.9986 32.8975 17.8798 33.6179 18.7367 34.5221 19.4194 35.5424 19.8793 36.6593 20.3756 37.8706 20.6225 39.0939 20.6031 39.9594 20.6201 40.8225 20.4748 41.6324 20.1722 42.2876 19.9253 42.9089 19.5937 43.4819 19.187 43.9243 18.8723 44.3281 18.5043 44.681 18.0928 44.9784 17.7345 45.1912 17.4706 45.3145 17.306L46.4314 18.0758V18.0831zM58.5493 22C57.21 22.017 55.8827 21.7483 54.6497 21.2109 53.4167 20.6759 52.307 19.8819 51.3907 18.8845 50.4914 17.8896 49.783 16.73 49.3091 15.4664 48.3058 12.743 48.3058 9.73881 49.3091 7.01544 49.7854 5.7518 50.4914 4.59224 51.3907 3.59731 52.278 2.61931 53.3514 1.83498 54.5457 1.29757 55.8102.748054 57.1713.462402 58.5469.462402 59.9225.462402 61.2813.745633 62.5481 1.29757 63.7424 1.8374 64.8158 2.62173 65.7031 3.59731 66.6001 4.59467 67.306 5.75422 67.7847 7.01544 68.788 9.73881 68.788 12.743 67.7847 15.4664 67.3084 16.73 66.6025 17.8896 65.7031 18.8845 64.7868 19.8819 63.6771 20.6735 62.4466 21.2084 61.216 21.7434 59.8887 22.0146 58.5493 21.9976V22zM58.5493 2.17389C57.3961 2.15937 56.255 2.40386 55.2033 2.88802 54.2242 3.34312 53.349 3.99915 52.631 4.81496 51.9057 5.65981 51.3472 6.64022 50.9846 7.70294 50.5929 8.84312 50.3946 10.0463 50.4019 11.2542 50.3946 12.4573 50.5905 13.6532 50.9846 14.7885 51.3496 15.8488 51.9081 16.8293 52.631 17.6765 53.3442 18.4996 54.2218 19.158 55.2033 19.6035 56.2622 20.0634 57.3985 20.3007 58.5493 20.3007 59.7001 20.3007 60.8364 20.0634 61.8953 19.6035 62.8769 19.158 63.7545 18.4996 64.4653 17.6765 65.1857 16.8268 65.7442 15.8464 66.1117 14.7885 66.5058 13.6532 66.7016 12.4573 66.6943 11.2542 66.7016 10.0438 66.5058 8.84312 66.1117 7.70294 65.7491 6.64022 65.1906 5.65981 64.4653 4.81496 63.7473 3.99673 62.8721 3.3407 61.8929 2.88802 60.8437 2.40144 59.7025 2.15452 58.5493 2.16663V2.17389zM88.1323 21.3489H86.0169L85.9492 21.2569 73.595 4.46396V21.3489H71.3926V.464844H73.5104L73.5781.556833 85.9298 17.5749V.464844H88.1492L88.1323 21.3489zM101.117 21.3489H98.9488L98.8061 21.0124 90.3613.464844H93.1948L93.3326.801331 100.087 17.5652 106.954.464844H109.698L109.391 1.22255 101.117 21.3489zM126.455 21.3489H112.275V.464844H125.676V3.18579H115.152V9.13606H123.375V11.8546H115.152V18.6255H126.455V21.3464 21.3489zM145.146 21.349H141.611L137.136 13.0457H132.775V21.349H129.678V.467369H136.336C137.494.443161 138.65.593249 139.764.90795 140.661 1.16455 141.49 1.61482 142.194 2.22727 142.822 2.78889 143.304 3.49818 143.591 4.28977 143.872 5.08137 144.009 5.91411 144.002 6.7517 144.029 8.10249 143.647 9.42666 142.907 10.5596 142.291 11.4674 141.401 12.1597 140.366 12.5374L145.143 21.3514 145.146 21.349zM132.775 10.0488H136.914C139.617 10.0488 140.823 9.03933 140.823 6.75896 140.823 5.63572 140.511 4.83445 139.878 4.31156 139.242 3.78625 138.144 3.47397 136.742 3.47397H132.777V10.0488H132.775zM153.68 21.9998C152.882 22.0046 152.087 21.9126 151.313 21.7238 150.629 21.552 149.964 21.3075 149.328 20.9928 148.753 20.7071 148.211 20.3561 147.716 19.9446 147.271 19.5766 146.874 19.1481 146.541 18.6712L146.074 17.9886 148.369 15.7106 149.036 16.5337C149.577 17.2018 150.24 17.7586 150.987 18.1701 151.823 18.601 152.749 18.8092 153.685 18.7777 154.258 18.785 154.828 18.7124 155.382 18.5623 155.82 18.4461 156.231 18.2476 156.598 17.9789 156.903 17.7513 157.147 17.4512 157.309 17.105 157.49 16.7007 157.577 16.2601 157.565 15.8171 157.58 15.3717 157.485 14.9287 157.287 14.5317 157.094 14.1759 156.825 13.8684 156.501 13.6288 156.117 13.3479 155.694 13.1252 155.249 12.963 154.715 12.7645 154.171 12.583 153.627 12.4232 152.935 12.2344 152.217 12.0189 151.514 11.7841 150.769 11.5372 150.063 11.1838 149.413 10.7384 148.753 10.2784 148.199 9.67079 147.796 8.96393 147.346 8.11181 147.126 7.15319 147.157 6.1873 147.157 5.41265 147.317 4.64769 147.631 3.94324 147.945 3.23879 148.407 2.61423 148.98 2.11071 149.597 1.57572 150.305 1.16419 151.071.900326 151.944.60015 152.863.454903 153.784.467007 154.56.457324 155.331.556576 156.081.7575 156.695.924533 157.287 1.16419 157.848 1.47163 158.334 1.73791 158.784 2.06714 159.185 2.45446 159.497 2.75948 159.782 3.08871 160.041 3.44214L160.573 4.1829 158.174 6.26718 157.563 5.42717C157.403 5.21415 157.227 5.01564 157.036 4.83166 156.811 4.61621 156.562 4.42982 156.294 4.27489 155.953 4.08607 155.592 3.94082 155.218 3.84157 154.734 3.71811 154.234 3.65759 153.736 3.66727 153.197 3.65275 152.657 3.73505 152.145 3.90935 151.775 4.04007 151.434 4.24584 151.144 4.51454 150.912 4.73241 150.728 5.00112 150.61 5.30129 150.491 5.59905 150.431 5.91617 150.428 6.23813 150.409 6.62546 150.506 7.00794 150.706 7.33717 150.938 7.66881 151.238 7.94236 151.589 8.14086 152.048 8.40715 152.534 8.61533 153.042 8.76542 153.644 8.9494 154.248 9.1237 154.86 9.28831 155.539 9.46987 156.209 9.69258 156.864 9.9516 157.577 10.2324 158.245 10.6246 158.837 11.116 159.451 11.6365 159.954 12.278 160.314 13.0066 160.723 13.8805 160.923 14.8416 160.899 15.8123 160.911 16.7249 160.703 17.6279 160.297 18.4388 159.91 19.1965 159.371 19.8647 158.714 20.3924 158.027 20.9322 157.249 21.3413 156.419 21.5955 155.532 21.8691 154.611 22.0071 153.685 22.0022L153.68 21.9998zM168.628.464844H164.762V21.3489H168.628V.464844zM181.841 21.9976C180.499 22.0122 179.167 21.741 177.934 21.1988 176.701 20.6565 175.589 19.8577 174.671 18.8482 173.774 17.8533 173.072 16.6937 172.599 15.4277 171.603 12.7236 171.603 9.73641 172.599 7.03241 173.075 5.76876 173.776 4.60921 174.668 3.61185 175.558 2.62417 176.636 1.835 177.835 1.29033 179.104.745654 180.466.464844 181.841.464844 183.217.464844 184.58.745654 185.847 1.29033 187.046 1.835 188.125 2.6266 189.014 3.61669 189.909 4.61163 190.608 5.7736 191.084 7.03725 192.08 9.74125 192.08 12.7285 191.084 15.4325 190.61 16.6986 189.909 17.8581 189.012 18.853 188.093 19.8601 186.984 20.6614 185.748 21.2036 184.515 21.7459 183.183 22.0194 181.841 22.0025V21.9976zM181.841 4.19042C180.971 4.17831 180.105 4.36229 179.31 4.72783 178.57 5.07158 177.91 5.57026 177.369 6.1924 176.813 6.84359 176.387 7.60129 176.111 8.41951 175.804 9.32488 175.65 10.2762 175.657 11.2349 175.65 12.1887 175.804 13.1352 176.111 14.0357 176.392 14.8539 176.82 15.6116 177.371 16.2701 177.905 16.8898 178.563 17.3861 179.3 17.7225 180.927 18.41 182.753 18.41 184.38 17.7225 185.117 17.3861 185.772 16.8898 186.307 16.2701 186.863 15.6141 187.291 14.8539 187.569 14.0333 187.878 13.1352 188.033 12.1887 188.028 11.2349 188.033 10.2762 187.878 9.32488 187.569 8.41951 187.295 7.60129 186.868 6.84359 186.311 6.1924 185.77 5.57268 185.11 5.074 184.37 4.72783 183.575 4.36229 182.712 4.17831 181.839 4.19042H181.841zM196.45.464844H198.152L207.829 14.0454V.464844H212V22.0001H208.453L198.773 8.59623V22.0001H194.598V.464844H196.447 196.45z" fill="#fff"/><path d="M21.9713 0V20.6758L15.8329 14.5271V6.14877H7.46306L1.32227 0H21.9713Z" fill="#66DAC7"/><path d="M15.8327 6.14893V14.5272L7.46289 6.14893H15.8327Z" fill="#399090"/><path d="M15.8331 14.5272V22.0002L0 6.14893H7.46324L15.8331 14.5272Z" fill="#F6876F"/></g><defs><clipPath id="clip0_560_593"><path fill="#fff" d="M0 0H212V22H0z"/></clipPath></defs></svg>